<svg xmlns="http://www.w3.org/2000/svg" viewBox="0 0 64 64" fill="none" stroke="#E5B94E" stroke-width="2" stroke-linecap="round" stroke-linejoin="round">
  <rect width="64" height="64" rx="14" fill="#0B0B0D" stroke="none"/>
  <path d="M20 22c-2-8 4-15 13-15 7 0 12 4 13 10"/>
  <path d="M46 17c4 1 7 4 7 8 0 5-4 7-8 7"/>
  <path d="M45 12c3-1 6 0 7 3"/>
  <path d="M50 24c3 1 5 3 5 6"/>
  <path d="M20 22c-1 4-1 8 1 12 1 3 3 5 3 8v10"/>
  <path d="M24 34c2 1 4 1 6 0"/>
  <path d="M24 52c6 3 13 3 20 0"/>
  <circle cx="27" cy="40" r="3.2"/>
</svg>
